<svg viewBox="0 0 501.06 138.64" xmlns="http://www.w3.org/2000/svg" fill="#013729" class="text h-7 lg:h-9 "><path d="M148.33 5.13h17.78v32.46c4.77-9.31 13.72-15.28 26.85-15.28 19.57 0 30.19 12.17 30.19 31.15v39.62h-18.62V58.83c0-12.65-4.42-21.24-18.02-21.24s-20.41 8.23-20.41 22.79v32.7h-17.78V5.13zM235.32 59.67v-.72c0-22.91 16.59-36.64 41.05-36.64s41.17 13.48 41.17 36.64v.72c0 21.72-13.96 35.44-41.53 35.44s-40.7-13.13-40.7-35.44zm63.49-.12v-.6c0-13.84-7.4-21.48-22.2-21.48s-22.56 7.4-22.56 21.48v.6c0 13.13 7.28 20.17 22.32 20.17s22.44-7.16 22.44-20.17zM337.33 40.34h-16.71V25.3c3.46 0 7.05.05 10.26-.24 8.71-.79 8.77-16.11 8.77-19.21h15.09v18.73h24.58v15.75h-24.58v18.5c0 13.89 1.74 17.18 11.6 17.78 2.65.16 5.31.06 7.95-.23l5.03-.55V91.9s-4.67 1.17-13.01 1.17c-22.79 0-29-8-29-31.27V40.32zM388.03 60.15v-.6c0-21 14.44-37.23 41.41-37.23s40.46 15.16 40.46 35.92v7.28h-64.21c1.91 9.79 9.19 15.16 23.87 15.16 10.74 0 16.94-3.03 19.33-8h20.05c-4.83 15.67-19.93 22.44-40.69 22.44-28.76 0-40.22-13.84-40.22-34.97zm17.9-8.23h45.71c-1.79-10.38-8.59-15.16-21.84-15.16s-21.48 5.61-23.87 15.16zM501.06 5.13v87.95h-18.5V5.13zM110.74 30.7C106.59 12.21 92.05 0 69.32 0 30.47 0-.91 31.96.02 71.01c.88 36.92 31.1 66.95 68.03 67.61 7.57.14 17.98-1.03 28.73-5.56v-28.29c-7.76 4.34-16.72 6.82-26.25 6.82h-.31c-.21 0-.43.01-.64.01-28.63 0-51.83-22.49-51.83-52.17 0-35.04 34.07-62.44 68.29-51.19 10.62 3.49 16.6 11.45 19.22 20.95-9.88-2.8-16.19-2.82-21.7-2.28C42.44 30.93 34 78.04 59.29 90.51c11.55 5.7 22.1 3.25 29.88-1.1 9.64-5.39 15.97-14.89 19.26-25.43 1.18-3.78 2.04-9.26 2.62-12.85v41.96h18.3V26.35c-5.67 3.62-13.47 5.31-18.61 4.35zm-3.97 14.51c-2.09 35.51-35.8 37.15-43.26 20.56-6.86-15.27 9.74-43.1 39.51-32.86 2.03.7 3.51 2.49 3.68 4.63.21 2.53.22 5.1.07 7.67z"></path></svg>
