<svg width="168" height="50" viewBox="0 0 168 50" fill="none" xmlns="http://www.w3.org/2000/svg">
<g clip-path="url(#clip0_7_2668)">
<path d="M114.929 18.3782C107.25 18.3782 99.7413 18.3782 92.1333 18.3782C93.9125 24.7265 100.332 26.8189 105.001 22.9472C108.481 20.0649 109.2 19.9012 114.117 20.8406C112.061 28.3348 104.054 32.427 95.3857 30.42C87.5998 28.6194 83.1446 21.3744 84.6605 12.9978C86.1195 4.94852 93.6207 0.109005 102.645 1.39717C110.502 2.51453 115.754 9.44642 114.929 18.3782ZM107.541 12.5352C105.364 8.43582 102.638 6.91991 98.7235 7.44656C95.77 7.84511 93.5068 9.19021 92.5176 12.5352C97.592 12.5352 102.375 12.5352 107.541 12.5352Z" fill="#023F41"/>
<path d="M31.0413 13.6098C27.3832 13.7949 24.1948 14.7984 21.8178 10.5424C19.6756 6.69929 14.1813 6.72064 10.9502 9.7738C7.54833 12.9978 7.50563 18.9333 10.8648 22.2498C13.9465 25.2958 19.0849 25.0823 21.9459 21.7872C25.3335 17.8871 25.3335 17.8871 30.9915 18.7411C29.7105 26.648 23.3337 31.4876 14.9642 30.8969C6.58754 30.3061 0.851298 24.5201 0.73031 16.5562C0.616439 8.46428 5.93279 2.2085 13.6547 1.36159C22.7287 0.358098 29.376 4.89158 31.0413 13.6098Z" fill="#023F41"/>
<path d="M83.764 1.26907C83.764 3.48243 83.764 5.70291 83.764 7.97322C82.2125 8.3433 80.7109 8.59239 79.2875 9.06922C75.3732 10.3787 73.5157 12.8768 73.4374 17.0188C73.3591 21.2819 73.4231 25.552 73.4231 30.1069C71.0461 30.1069 68.8683 30.1069 66.3916 30.1069C66.3916 20.8976 66.3916 11.6171 66.3916 2.11598C68.7046 2.11598 70.8895 2.11598 73.2025 2.11598C73.3448 3.62477 73.4729 4.96987 73.5726 5.98047C76.6898 4.03044 79.743 2.1231 82.7961 0.215759C83.1164 0.564489 83.4438 0.920336 83.764 1.26907Z" fill="#023F41"/>
<path d="M139.44 1.96652C139.44 7.91628 139.44 13.8162 139.44 20.0079C141.148 20.2499 142.614 20.4634 144.379 20.7196C144.422 21.6733 144.464 22.6554 144.514 23.8155C142.849 23.9294 141.454 24.029 139.653 24.15C139.568 26.1072 139.482 28.0572 139.383 30.2492C138.08 30.3062 136.949 30.356 135.412 30.42C135.412 28.2849 135.412 26.3349 135.412 24.029C130.458 24.029 125.889 24.029 120.438 24.029C121.235 21.8726 121.541 20.1432 122.437 18.8123C125.668 13.987 129.27 9.40372 132.387 4.50727C134.074 1.86689 136.009 0.984388 139.44 1.96652ZM135.12 6.73487C131.625 11.553 128.672 15.6239 125.398 20.1432C129.262 20.1432 132.159 20.1432 135.12 20.1432C135.12 15.8161 135.12 11.7523 135.12 6.73487Z" fill="#023F41"/>
<path d="M47.1895 7.42521C47.1895 5.31148 47.1895 3.45396 47.1895 1.61068C54.5768 1.04132 61.4589 7.09783 61.9927 14.4639C62.6474 23.5451 56.9752 29.9432 47.3104 30.6976C47.3104 28.6408 47.3104 26.5982 47.3104 24.3208C51.602 23.3743 54.6622 20.9403 54.8615 16.0723C55.0323 11.9373 52.8047 9.50336 47.1895 7.42521Z" fill="#023F41"/>
<path d="M151.737 10.2506C150.606 10.1937 149.474 10.1296 148.343 10.0727C148.791 5.05527 151.474 2.07328 155.894 1.39717C160.762 0.657009 165.217 2.57858 166.84 6.12281C168.59 9.96596 167.267 14.3002 163.203 17.2893C160.826 19.04 158.157 20.378 155.794 22.143C154.399 23.1892 153.346 24.6909 152.136 25.9862C152.307 26.2495 152.478 26.5128 152.648 26.7762C157.552 26.7762 162.463 26.7762 167.665 26.7762C167.793 28.043 167.886 29.0109 168.007 30.1994C161.039 30.1994 154.342 30.1994 147.553 30.1994C147.667 25.7442 149.446 22.3708 153.097 19.9795C155.666 18.2999 158.292 16.6843 160.733 14.8268C162.968 13.1188 164.377 10.5638 162.904 8.0088C162.021 6.47866 159.751 5.18338 157.929 4.90582C155.054 4.46457 153.075 6.29362 152.278 9.18309C152.179 9.50336 151.972 9.78092 151.737 10.2506Z" fill="#023F41"/>
<ellipse cx="45.5676" cy="15.873" rx="5.69355" ry="5.69355" fill="#00D2AA"/>
</g>
<path d="M157.755 49.4154C157.542 49.4154 157.341 49.3983 157.155 49.364C156.97 49.3324 156.818 49.2916 156.696 49.2416L157.076 47.9857C157.273 48.0463 157.451 48.0792 157.609 48.0845C157.769 48.0897 157.908 48.0529 158.023 47.9739C158.142 47.8949 158.238 47.7606 158.312 47.5711L158.41 47.3144L156.234 41.0745H158.004L159.26 45.5293H159.323L160.59 41.0745H162.372L160.014 47.7962C159.901 48.1226 159.747 48.407 159.552 48.6492C159.36 48.8941 159.116 49.0823 158.821 49.214C158.526 49.3482 158.171 49.4154 157.755 49.4154Z" fill="#023F41"/>
<path d="M151.697 43.6336V47.1406H150.015V41.0745H151.618V42.1447H151.689C151.823 41.7919 152.049 41.5129 152.364 41.3075C152.68 41.0995 153.063 40.9955 153.514 40.9955C153.935 40.9955 154.302 41.0877 154.616 41.272C154.929 41.4563 155.172 41.7195 155.346 42.0618C155.52 42.4015 155.607 42.8069 155.607 43.2782V47.1406H153.924V43.5783C153.927 43.2071 153.832 42.9175 153.64 42.7095C153.448 42.4989 153.183 42.3936 152.846 42.3936C152.62 42.3936 152.42 42.4423 152.246 42.5397C152.075 42.6371 151.941 42.7793 151.843 42.9662C151.748 43.1505 151.7 43.373 151.697 43.6336Z" fill="#023F41"/>
<path d="M145.293 47.2551C144.906 47.2551 144.561 47.188 144.259 47.0537C143.956 46.9168 143.716 46.7154 143.54 46.4495C143.366 46.1809 143.279 45.8465 143.279 45.4463C143.279 45.1093 143.341 44.8263 143.465 44.5973C143.589 44.3682 143.757 44.1839 143.97 44.0444C144.184 43.9048 144.426 43.7995 144.697 43.7284C144.971 43.6573 145.258 43.6073 145.558 43.5783C145.911 43.5415 146.195 43.5072 146.411 43.4757C146.627 43.4414 146.784 43.3914 146.881 43.3256C146.978 43.2598 147.027 43.1623 147.027 43.0333V43.0096C147.027 42.7595 146.948 42.566 146.79 42.4291C146.635 42.2922 146.414 42.2237 146.127 42.2237C145.824 42.2237 145.583 42.2909 145.404 42.4251C145.225 42.5568 145.107 42.7227 145.049 42.9228L143.493 42.7964C143.572 42.4278 143.727 42.1092 143.959 41.8407C144.19 41.5695 144.489 41.3615 144.855 41.2167C145.224 41.0692 145.65 40.9955 146.135 40.9955C146.472 40.9955 146.794 41.035 147.102 41.114C147.413 41.193 147.688 41.3154 147.928 41.4813C148.17 41.6471 148.361 41.8604 148.5 42.1211C148.64 42.3791 148.71 42.6884 148.71 43.0491V47.1406H147.114V46.2994H147.067C146.969 46.489 146.839 46.6561 146.676 46.801C146.512 46.9431 146.316 47.055 146.087 47.1366C145.858 47.2156 145.594 47.2551 145.293 47.2551ZM145.775 46.094C146.023 46.094 146.241 46.0453 146.431 45.9479C146.62 45.8479 146.769 45.7136 146.877 45.5451C146.985 45.3766 147.039 45.1857 147.039 44.9724V44.3287C146.986 44.3629 146.914 44.3945 146.822 44.4235C146.732 44.4498 146.631 44.4748 146.518 44.4985C146.404 44.5196 146.291 44.5393 146.178 44.5578C146.065 44.5736 145.962 44.588 145.87 44.6012C145.673 44.6302 145.5 44.6762 145.353 44.7394C145.205 44.8026 145.091 44.8882 145.009 44.9961C144.927 45.1014 144.887 45.2331 144.887 45.3911C144.887 45.6201 144.97 45.7952 145.135 45.9163C145.304 46.0348 145.517 46.094 145.775 46.094Z" fill="#023F41"/>
<path d="M136.526 49.4154V41.0745H138.185V42.0934H138.26C138.334 41.9302 138.44 41.7643 138.58 41.5958C138.722 41.4247 138.906 41.2825 139.133 41.1693C139.362 41.0534 139.646 40.9955 139.986 40.9955C140.428 40.9955 140.836 41.1114 141.21 41.343C141.584 41.5721 141.883 41.9183 142.107 42.3817C142.33 42.8425 142.442 43.4204 142.442 44.1154C142.442 44.7921 142.333 45.3634 142.115 45.8294C141.899 46.2928 141.604 46.6443 141.23 46.8839C140.859 47.1208 140.443 47.2393 139.982 47.2393C139.656 47.2393 139.378 47.1854 139.149 47.0774C138.922 46.9695 138.737 46.8339 138.592 46.6706C138.447 46.5048 138.336 46.3376 138.26 46.1691H138.209V49.4154H136.526ZM138.173 44.1075C138.173 44.4682 138.223 44.7829 138.323 45.0514C138.423 45.32 138.568 45.5293 138.758 45.6794C138.947 45.8268 139.178 45.9005 139.449 45.9005C139.723 45.9005 139.954 45.8255 140.144 45.6754C140.333 45.5227 140.477 45.3121 140.574 45.0435C140.674 44.7723 140.724 44.4603 140.724 44.1075C140.724 43.7574 140.676 43.4493 140.578 43.1834C140.481 42.9175 140.337 42.7095 140.148 42.5594C139.958 42.4094 139.725 42.3343 139.449 42.3343C139.175 42.3343 138.943 42.4067 138.754 42.5515C138.567 42.6963 138.423 42.9017 138.323 43.1676C138.223 43.4335 138.173 43.7468 138.173 44.1075Z" fill="#023F41"/>
<path d="M126.382 47.1406V41.0745H127.985V42.1447H128.056C128.183 41.7893 128.393 41.5089 128.688 41.3035C128.983 41.0982 129.336 40.9955 129.747 40.9955C130.163 40.9955 130.517 41.0995 130.809 41.3075C131.101 41.5129 131.296 41.7919 131.393 42.1447H131.457C131.58 41.7972 131.804 41.5194 132.128 41.3114C132.455 41.1008 132.84 40.9955 133.285 40.9955C133.851 40.9955 134.311 41.1759 134.663 41.5366C135.019 41.8946 135.197 42.4028 135.197 43.061V47.1406H133.518V43.3927C133.518 43.0557 133.429 42.803 133.25 42.6345C133.071 42.466 132.847 42.3817 132.578 42.3817C132.273 42.3817 132.035 42.4791 131.863 42.674C131.692 42.8661 131.607 43.1202 131.607 43.4362V47.1406H129.976V43.3572C129.976 43.0597 129.89 42.8227 129.719 42.6463C129.55 42.4699 129.328 42.3817 129.052 42.3817C128.865 42.3817 128.696 42.4291 128.546 42.5239C128.399 42.616 128.281 42.7464 128.195 42.9149C128.108 43.0807 128.064 43.2756 128.064 43.4994V47.1406H126.382Z" fill="#023F41"/>
<path d="M122.303 47.2591C121.69 47.2591 121.159 47.1287 120.711 46.8681C120.267 46.6048 119.923 46.2388 119.681 45.7702C119.438 45.2989 119.317 44.7526 119.317 44.1312C119.317 43.5046 119.438 42.957 119.681 42.4883C119.923 42.0171 120.267 41.6511 120.711 41.3904C121.159 41.1271 121.69 40.9955 122.303 40.9955C122.916 40.9955 123.446 41.1271 123.891 41.3904C124.338 41.6511 124.683 42.0171 124.925 42.4883C125.168 42.957 125.289 43.5046 125.289 44.1312C125.289 44.7526 125.168 45.2989 124.925 45.7702C124.683 46.2388 124.338 46.6048 123.891 46.8681C123.446 47.1287 122.916 47.2591 122.303 47.2591ZM122.311 45.9558C122.59 45.9558 122.823 45.8768 123.01 45.7189C123.197 45.5582 123.338 45.3397 123.433 45.0633C123.53 44.7868 123.579 44.4722 123.579 44.1194C123.579 43.7666 123.53 43.452 123.433 43.1755C123.338 42.8991 123.197 42.6805 123.01 42.5199C122.823 42.3593 122.59 42.279 122.311 42.279C122.029 42.279 121.792 42.3593 121.6 42.5199C121.411 42.6805 121.267 42.8991 121.17 43.1755C121.075 43.452 121.027 43.7666 121.027 44.1194C121.027 44.4722 121.075 44.7868 121.17 45.0633C121.267 45.3397 121.411 45.5582 121.6 45.7189C121.792 45.8768 122.029 45.9558 122.311 45.9558Z" fill="#023F41"/>
<path d="M115.776 47.2591C115.154 47.2591 114.62 47.1274 114.172 46.8641C113.727 46.5982 113.385 46.2296 113.145 45.7583C112.909 45.2871 112.79 44.7447 112.79 44.1312C112.79 43.5099 112.91 42.9649 113.149 42.4962C113.392 42.025 113.735 41.6577 114.18 41.3944C114.625 41.1285 115.154 40.9955 115.768 40.9955C116.297 40.9955 116.76 41.0916 117.158 41.2838C117.556 41.476 117.87 41.7459 118.102 42.0934C118.334 42.4409 118.461 42.849 118.485 43.3177H116.897C116.853 43.0149 116.734 42.7714 116.542 42.5871C116.352 42.4001 116.103 42.3067 115.795 42.3067C115.535 42.3067 115.307 42.3778 115.112 42.5199C114.92 42.6595 114.77 42.8635 114.662 43.1321C114.554 43.4006 114.5 43.7258 114.5 44.1075C114.5 44.4946 114.553 44.8237 114.658 45.0949C114.766 45.366 114.917 45.5727 115.112 45.7149C115.307 45.8571 115.535 45.9282 115.795 45.9282C115.988 45.9282 116.16 45.8887 116.313 45.8097C116.468 45.7307 116.596 45.6162 116.696 45.4661C116.799 45.3134 116.866 45.1304 116.897 44.9171H118.485C118.459 45.3805 118.332 45.7886 118.106 46.1414C117.882 46.4916 117.573 46.7654 117.178 46.9629C116.783 47.1603 116.315 47.2591 115.776 47.2591Z" fill="#023F41"/>
<path d="M103.44 47.1406V45.9084L106.319 43.2427C106.564 43.0057 106.77 42.7924 106.935 42.6029C107.104 42.4133 107.232 42.2277 107.319 42.046C107.405 41.8617 107.449 41.6629 107.449 41.4497C107.449 41.2127 107.395 41.0087 107.287 40.8375C107.179 40.6638 107.032 40.5308 106.845 40.4387C106.658 40.3439 106.446 40.2965 106.209 40.2965C105.961 40.2965 105.745 40.3465 105.561 40.4466C105.377 40.5466 105.235 40.6901 105.135 40.877C105.035 41.064 104.984 41.2864 104.984 41.5445H103.361C103.361 41.0153 103.481 40.5558 103.721 40.1662C103.96 39.7765 104.296 39.475 104.728 39.2618C105.16 39.0485 105.657 38.9419 106.221 38.9419C106.8 38.9419 107.304 39.0446 107.733 39.2499C108.165 39.4527 108.501 39.7344 108.74 40.0951C108.98 40.4558 109.1 40.8691 109.1 41.3351C109.1 41.6406 109.039 41.942 108.918 42.2395C108.799 42.537 108.588 42.8675 108.282 43.2308C107.977 43.5915 107.546 44.0246 106.991 44.5301L105.81 45.6873V45.7425H109.206V47.1406H103.44Z" fill="#023F41"/>
<path d="M95.7803 45.7189V44.3721L99.1569 39.0525H100.318V40.9165H99.6308L97.5022 44.2853V44.3484H102.301V45.7189H95.7803ZM99.6624 47.1406V45.3081L99.694 44.7118V39.0525H101.297V47.1406H99.6624Z" fill="#023F41"/>
<path d="M92.853 41.6669C92.7977 41.4747 92.72 41.3049 92.62 41.1574C92.5199 41.0074 92.3975 40.881 92.2527 40.7783C92.1105 40.673 91.9473 40.5927 91.763 40.5374C91.5813 40.4821 91.3799 40.4545 91.1587 40.4545C90.7454 40.4545 90.382 40.5571 90.0687 40.7625C89.758 40.9679 89.5158 41.2667 89.342 41.659C89.1683 42.0487 89.0814 42.5252 89.0814 43.0886C89.0814 43.6521 89.167 44.1312 89.3381 44.5262C89.5092 44.9211 89.7515 45.2226 90.0648 45.4306C90.3781 45.6359 90.748 45.7386 91.1745 45.7386C91.5615 45.7386 91.892 45.6701 92.1658 45.5332C92.4422 45.3937 92.6529 45.1975 92.7977 44.9448C92.9451 44.692 93.0188 44.3932 93.0188 44.0483L93.3664 44.0996H91.2811V42.8122H94.6657V43.8311C94.6657 44.542 94.5156 45.1528 94.2155 45.6636C93.9153 46.1717 93.502 46.564 92.9754 46.8404C92.4488 47.1143 91.8459 47.2512 91.1666 47.2512C90.4084 47.2512 89.7422 47.084 89.1683 46.7496C88.5943 46.4126 88.1467 45.9347 87.8255 45.316C87.5069 44.6947 87.3477 43.9575 87.3477 43.1044C87.3477 42.4488 87.4424 41.8643 87.632 41.3509C87.8242 40.8349 88.0928 40.3978 88.4377 40.0398C88.7826 39.6817 89.1841 39.4092 89.6422 39.2223C90.1003 39.0353 90.5966 38.9419 91.1311 38.9419C91.5892 38.9419 92.0157 39.009 92.4106 39.1433C92.8056 39.2749 93.1557 39.4619 93.4611 39.7041C93.7692 39.9463 94.0206 40.2346 94.2155 40.569C94.4103 40.9007 94.5354 41.2667 94.5906 41.6669H92.853Z" fill="#023F41"/>
<path d="M77.9907 47.1406H76.1582L78.9503 39.0525H81.154L83.9422 47.1406H82.1098L80.0838 40.9007H80.0206L77.9907 47.1406ZM77.8761 43.9614H82.2046V45.2963H77.8761V43.9614Z" fill="#023F41"/>
<defs>
<clipPath id="clip0_7_2668">
<rect width="167.269" height="30.7309" fill="white" transform="translate(0.730469 0.215759)"/>
</clipPath>
</defs>
</svg>
