  <svg
    width="56"
    height="56"
    viewBox="0 0 56 56"
    fill="none"
    xmlns="http://www.w3.org/2000/svg"
    className={className}
  >
    <path
      fillRule="evenodd"
      clipRule="evenodd"
      d="M28 4.1791C14.8446 4.1791 4.1791 14.8446 4.1791 28C4.1791 39.0022 11.6391 48.2657 21.7796 51.0014L22.9612 51.2671L22.7085 55.5805L20.6911 55.0363C8.77349 51.8212 0 40.9388 0 28C0 12.5365 12.5365 0 28 0C43.4635 0 56 12.5365 56 28C56 43.4635 43.4635 56 28 56H25.9104V16.8853H30.0896V51.7305C42.2665 50.6721 51.8209 40.4514 51.8209 28C51.8209 14.8446 41.1554 4.1791 28 4.1791Z"
      fill="currentColor"
    />
  </svg>